<?xml version="1.0" encoding="UTF-8"?>
<svg width="352px" height="186px" viewBox="0 0 352 186" version="1.1" xmlns="http://www.w3.org/2000/svg" xmlns:xlink="http://www.w3.org/1999/xlink">
    <g id="Page-1" stroke="none" stroke-width="1" fill="none" fill-rule="evenodd">
        <g id="logo-copy-2" fill="#FFFFFF" fill-rule="nonzero">
            <path d="M135.6,52.1 C134.1,57.2 132.8,61.9 131.7,66.2 C130.6,70.5 129.6,74.8 128.8,79 C128,83.2 127.4,87.6 127.2,92.2 C127,96.7 126.9,101.6 127.1,106.8 C127.3,109.1 127.9,111.1 128.6,112.9 C129.4,114.7 130.7,116.2 132.6,117.4 C134.5,118.6 137,119.5 140.2,120.1 C143.3,120.6 147.4,120.7 152.6,120.3 L152.6,120.3 L152.6,120.3 L152.6,120.3 C152.8,120.5 153.1,120.4 153.5,120.1 C154,119.6 154.5,118.8 154.9,117.6 C155,117.2 154.9,116.2 154.7,114.8 C154.5,113.6 154.2,112 154,109.9 C153.8,107.8 153.7,105.6 153.6,103.1 C153.7,97.4 154.8,92.3 156.8,87.7 C158,84.5 159.6,81.6 161.5,79.1 C163.4,76.5 165.3,74.2 167.2,72.2 C167.4,72 167.7,71.9 168.1,72 L168.2,72.6 C167.6,74.6 167.1,76.5 166.8,78.2 C166.5,79.9 166.3,81.5 166.2,83 C165.3,90.9 165.2,97.5 165.9,102.7 C166.6,107.9 167.3,111.7 168,114 C168.3,114.4 168.6,114.9 169,115.7 C169.4,116.5 170.1,117 171.2,117.5 C173.9,118.4 176.5,118.8 179,118.8 C181.5,118.7 183.8,118.4 185.9,117.9 C188,117.4 189.8,116.7 191.5,115.8 C193.1,115 194.5,114.2 195.6,113.6 C196.5,113 196.8,112.3 196.4,111.6 C196,110.8 195.6,110.2 195.1,109.7 C191.6,106.8 189.3,102.5 188.3,96.8 C187.3,91 187,85 187.6,78.6 C187.9,76.9 188.2,75.1 188.6,73.2 C189,71.4 189.3,69.6 189.6,67.8 C190.1,66 190.5,64.3 190.9,62.7 C191.3,61.1 191.7,59.5 192,57.9 C192.6,55.9 193,53.5 193.2,50.6 C193.4,47.7 192.1,45.4 189.5,43.7 C187.8,42.4 186,42 184.1,42.6 C182.2,43.2 180.6,43.9 179.1,44.9 C178.8,45.4 178.3,45.7 177.7,46 C177.1,46.2 176.7,46.6 176.3,47.1 C172.3,50 168.6,53.3 165.4,57 C162.2,60.7 159.3,64.2 156.9,67.6 C154.4,71 152.5,74.1 151,76.8 C149.5,79.5 148.6,81.3 148.2,82.2 C148.4,81.1 148.6,80.1 148.8,79.1 C149,78.1 149.2,77.1 149.4,76 C150,72.9 150.7,70.1 151.5,67.4 C152.2,64.7 152.9,62.5 153.6,60.7 C154.5,58 154.2,55.9 152.6,54.3 C151,52.7 149.8,51.7 148.9,51.3 C147.7,50.7 146.8,50.3 146,50.2 C145.2,50 144.6,49.9 144.2,49.8 C143.5,49.5 142.1,49.4 139.9,49.4 C137.7,49.4 136.3,50.3 135.6,52.1 Z" id="Path"></path>
            <path d="M199,107.8 C199.3,108.2 199.6,108.7 200,109.5 C200.4,110.3 201.1,110.8 202.2,111.3 C204.9,112.2 207.5,112.6 210,112.6 C212.5,112.5 214.8,112.2 216.9,111.7 C219,111.2 220.8,110.5 222.4,109.7 C224,108.9 225.4,108.1 226.5,107.5 C227.4,106.9 227.7,106.2 227.2,105.5 C226.7,104.8 226.2,104.1 225.7,103.6 C222.4,100.7 220.2,96.4 219,90.7 C217.9,85 217.7,78.9 218.5,72.5 C218.8,70.8 219.1,69 219.3,67.2 C219.6,65.4 219.9,63.6 220.4,61.8 C221,58.7 221.7,55.9 222.5,53.2 C223.2,50.5 223.9,48.3 224.6,46.5 C225.5,43.8 225.2,41.7 223.6,40.1 C222.1,38.4 220.8,37.4 219.7,37 C218.5,36.4 217.6,36 217,35.8 C216.3,35.6 215.8,35.5 215.3,35.3 C214.4,35.1 212.9,34.9 210.8,34.9 C208.7,34.9 207.3,35.8 206.6,37.6 C206.3,38.1 205.1,41.4 203.1,47.6 C201.1,53.7 199.3,61.9 197.8,72 C196.3,81.3 195.9,88.9 196.6,94.8 C197.3,100.7 198.1,105.1 199,107.8 Z" id="Path"></path>
            <path d="M208.5,28.3 C209.6,29.5 211,30.4 212.8,30.9 C214.6,31.4 216,31.6 217.1,31.4 C218.2,31.3 219,31.2 219.4,31.1 C219.8,31 220.2,30.7 220.5,30.3 C221,28.7 222.8,26.8 225.8,24.5 C228.8,22.2 231.8,19.9 234.7,17.4 C237.7,14.9 240,12.5 241.7,10.2 C243.5,7.8 243.5,5.7 241.9,3.7 C240.1,1.8 237.4,0.7 234,0.4 C230.6,0.1 227.1,0.6 223.5,1.9 C219.9,3.1 216.5,5.1 213.4,7.7 C210.3,10.3 208.1,13.4 206.9,17 C205.9,20.1 205.6,22.5 206.1,24.2 C206.6,25.9 207.4,27.2 208.5,28.3 Z" id="Path"></path>
            <path d="M280.7,48.9 C279.1,49.2 277.6,49.4 276.1,49.5 C276.2,48 276.2,46.1 276.1,43.9 C276,41.6 275.6,39.3 275,36.9 C274.4,34.5 273.6,32.2 272.5,30 C271.4,27.8 270.1,26 268.6,24.7 C267.4,23.9 266.4,23.3 265.6,22.8 C264.8,22.3 263.8,22 262.7,21.8 C261.6,21.6 260.3,21.7 258.7,22 L256.6,22.4 C251.7,23.8 248.6,27.9 247.4,34.6 C247.3,34.2 247.2,33.8 247,33.3 C246.8,32.8 246.3,32.5 245.4,32.2 C243.7,31.1 242,31.3 240.3,32.7 C238.6,34.2 237.3,35.6 236.3,36.8 C235,38.7 233.8,40.6 232.7,42.5 C231.6,44.4 230.6,46.3 229.7,48.1 C227.2,53.4 225.4,59.3 224.3,65.8 C223.2,72.3 222.9,78.4 223.5,84 C224.1,89.6 225.8,94.3 228.5,98.1 C231.2,101.8 235.3,103.6 240.7,103.4 C246.5,102.9 251.3,101.1 255.3,98 C259.3,94.9 262.6,91.3 265.2,87.2 C267.8,83.1 269.9,79 271.4,74.8 C272.9,70.6 273.9,67.3 274.4,64.6 L274.7,62.8 L275,61.3 L275.4,60 C276,60.1 277.1,60 278.5,59.7 C279.8,59.4 281.1,59.1 282.3,58.7 C282.6,55.1 283.1,51.6 283.7,48.2 C282.6,48.5 281.6,48.8 280.7,48.9 Z M259.9,62.5 C257.9,67.3 256.1,70.8 254.5,72.8 C253.3,75 251.7,77 249.8,79.1 C247.9,81.1 246,82.1 244.1,82.1 C241.2,82.1 239.5,80.4 239,77 C238.6,73.6 238.5,70.2 238.9,66.8 C239.1,63.8 239.4,61.2 239.8,58.8 C240.2,56.4 240.6,54.4 241.1,52.6 C241.5,51.3 241.9,50 242.5,48.6 C243.1,47.3 243.6,46 244,44.9 C244.6,43.8 245,42.5 245.4,41.2 C246.5,39.3 247.1,37.8 247.3,36.7 C247.3,37.7 247.2,38.7 247.2,39.5 C247.1,40.4 247.2,41.3 247.4,42.3 C247.2,43.6 247.3,44.5 247.6,45.1 C247.9,46.5 248.3,47.8 248.7,49 C249.2,50.2 249.6,51.2 250,52.2 C251,54.1 252.1,55.6 253.3,56.7 C254.5,57.8 255.6,58.7 256.8,59.3 C258,60.2 259.3,60.7 260.6,61.1 C260.6,61.3 260.4,61.8 259.9,62.5 L259.9,62.5 Z M263.8,47.3 C263.1,47.2 262.3,47 261.5,46.6 C259.6,45.7 258.4,44.5 257.9,42.9 C257.1,40.9 256.7,38.8 256.8,36.5 C256.8,34.1 257.6,32.7 259.2,32.2 C260.8,31.7 262.1,33.1 263.2,36.4 C264.3,39.8 264.5,43.4 263.8,47.3 Z" id="Shape"></path>
            <path d="M267.6,115.5 C265.1,113.2 261.9,111.8 257.8,111.3 C253.7,110.8 249.1,110.9 243.9,111.6 C238.7,112.3 233.1,113.6 227.2,115.4 C221.3,117.2 214.4,119.6 206.4,122.7 C198.4,125.8 190.8,128.8 183.6,131.8 C176.3,134.8 170,137.4 164.7,139.5 C159.4,141.6 156.4,142.5 155.7,142.2 C154.9,139.3 153.8,136.8 152.6,134.7 C151.4,132.9 149.7,131.3 147.6,130.1 C145.5,128.9 142.7,128.6 139.3,129.3 C135.9,130 133.3,131.8 131.6,134.8 C129.9,137.8 129,141 129.1,144.4 C129.2,147.8 130.2,151.1 132.3,154.1 C134.4,157.2 137.6,159.1 141.9,159.9 C141.9,161.8 141.7,163.5 141.4,165 C141.2,166.3 140.8,167.4 140.2,168.5 C139.6,169.6 138.7,170.3 137.5,170.5 C135.3,170.7 133,169.1 130.6,165.6 C127.3,161.5 124.7,156.5 122.8,150.7 C120.9,144.9 119.4,139.4 118.4,134.2 C117.6,130.1 117,126.5 116.7,123.2 C116.3,119.9 116.1,117.4 115.9,115.5 C115.9,114.5 115.9,113.4 115.8,112.4 C115.7,111.4 115.7,110.3 115.7,109.3 L115.7,104.6 L115.6,104.3 C115.6,91.6 116.9,78.9 119.6,66.2 C122.3,53.5 125.2,41.2 128.5,29.3 C128.6,29.1 128.7,28.9 128.7,28.8 C128.7,28.7 128.7,28.5 128.9,28.3 C128.8,28.1 129,27.8 129.3,27.3 C131,23.2 132.7,19.6 134.3,16.7 C135.9,13.8 137.2,12 138.1,11.4 C138.7,11.2 139.2,10.8 139.7,10.1 C139.8,9.8 139.9,9.5 139.8,9.1 C139.8,7.3 138.6,5.5 136.2,3.9 C135.3,3.2 133.9,2.8 132.2,2.5 C131.1,2.3 130.1,2.1 129.3,2.1 C128.5,2 127.7,2 127.1,1.9 C125.3,2.3 123.8,2.8 122.7,3.4 C122.1,3.7 121.7,4 121.3,4.3 C118.4,7.6 115.3,12.4 112.2,18.7 C111.3,20.7 109.6,24.7 107,30.5 C104.4,36.3 101.5,43.6 98.2,52.3 C94.9,61 91.5,70.7 87.9,81.5 C84.3,92.2 81.1,103.5 78.2,115.4 C76.6,121.4 75.1,126.5 73.4,130.8 C71.9,134.7 70.2,138 68.2,140.8 C66.3,143.6 64.2,144.7 62,144.1 C60.9,143.9 60.2,143.7 59.9,143.3 C58.8,142.2 58.1,140.2 57.6,137.3 C57.1,134.3 56.9,131 57,127.2 C56.8,124.1 56.8,120.9 57,117.6 C57.2,114.3 57.4,111.3 57.7,108.5 C58.2,103.6 59.1,98.7 60.4,93.7 C61.7,88.7 63,84 64.3,79.6 C65.6,75.1 66.9,71.1 68.2,67.5 C69.4,63.9 70.3,60.9 70.9,58.5 C71.4,56.8 71.8,55.1 72.1,53.6 C72.4,52.1 72.7,50.8 72.9,49.7 C73.2,48 73.4,46.5 73.4,45.1 C73.5,43.7 73.5,42.7 73.6,42.1 C73.6,38.8 73.4,35.9 73,33.6 C72.7,31.3 72.1,29.3 71.4,27.8 C70.6,26.1 69.8,24.6 68.9,23.3 C65.1,18.2 60.7,15.8 55.7,16.2 C50.7,16.6 45.8,18.1 41.1,20.7 C35.6,23.7 30,27.8 24.4,33.1 C17.3,40.1 12,46.7 8.6,52.7 C5.2,58.7 2.9,64.1 1.8,68.8 C0.7,73.5 0.3,77.5 0.6,80.8 C1,84.1 1.5,86.6 2.3,88.3 C4,92.4 6.4,95.5 9.7,97.8 C12.9,100 17.2,100.4 22.3,99 C24.9,98.3 26.9,97.3 28.3,96.1 C29.7,94.9 30.8,93.7 31.6,92.5 C32.4,91.1 33,89.5 33.5,87.7 L33.4,87.1 C33.4,86.7 33.1,86.3 32.6,86 C31.5,85.8 30.5,86 29.6,86.6 C29.2,86.6 28.7,86.6 28,86.4 C27.3,86.2 27,85.3 27.1,83.6 C27.1,82.7 27.4,80.5 27.8,77 C28.3,73.4 29.4,69.3 31.3,64.5 C33.2,59.8 36,54.8 39.9,49.5 C43.8,44.2 49.2,39.3 56,34.8 C56.1,34.5 56.4,34.4 56.8,34.3 C57,34.3 57.5,34.4 58.4,34.6 C58.9,34.9 58.8,36 58.1,37.8 C58,38.2 57,40.5 55.2,44.5 C53.4,48.5 51.3,53.6 49,59.8 C46.7,66 44.3,73 41.9,80.7 C39.5,88.4 37.4,96.1 35.7,103.9 C34,111.7 33,119.2 32.7,126.5 C32.3,133.8 33.2,140.1 35.3,145.3 C35.3,145.7 35.5,146 35.8,146.4 C36.1,146.8 36.3,147.2 36.4,147.7 C36.5,148.2 36.8,148.7 37.3,149.2 C37.9,150 38.4,150.7 38.8,151.3 C39.2,152 39.7,152.7 40.3,153.4 C42.3,155.3 45.1,157 48.5,158.5 C51.9,160 56.3,160.4 61.6,159.8 C64.4,159.4 67.3,158.5 70.1,157 C72.9,155.5 75.5,153 78,149.6 C82.3,144.1 85.2,137.4 86.5,129.4 C87.8,121.4 89.4,112.2 91.3,101.8 C90.7,107.3 90.5,112.5 90.6,117.3 C90.7,119.6 90.8,122.9 91,127 C91.2,131.1 91.9,135.7 93.1,140.8 C94.3,145.9 96,151.2 98.3,156.7 C100.5,162.2 103.7,167.4 107.8,172.2 C111.4,176.7 115.5,180.3 120.1,182.9 C124.7,185.5 130.5,186.2 137.6,185 C141,184.3 144,183 146.5,181 C148.6,179.3 150.7,177 152.6,174 C154.5,171 155.5,166.9 155.5,161.7 C173.3,154.4 189.5,148.4 204.3,143.8 C210.6,141.9 216.8,140.1 223,138.5 C229.1,136.8 234.8,135.6 240,134.9 C245.2,134.2 249.6,134.1 253.4,134.6 C257.1,135.1 259.8,136.4 261.2,138.4 C261.5,138.5 261.6,138.8 261.7,139.2 C261.9,140.2 262,141.1 261.9,141.7 C262,142.1 262.1,142.5 262.3,142.9 C262.4,143.3 262.8,143.6 263.2,143.7 L263.2,143.7 C263.9,144 264.7,143.8 266,143 C267.7,141.2 269.3,138.9 270.7,136.1 C272.2,133.4 272.6,129.6 272.1,124.9 C271.5,120.9 270,117.7 267.6,115.5 Z M139.6,144.7 C138.8,144.2 138.2,143.5 137.8,142.6 C137.4,141.8 137.4,140.9 137.6,140 C137.9,139.1 138.4,138.6 139.2,138.4 C140,138.2 140.7,138.5 141.1,139.1 C141.6,139.7 142,140.5 142.4,141.5 C142.8,142.4 143,143.7 143.1,145.1 C141.7,145.4 140.5,145.3 139.6,144.7 Z" id="Shape"></path>
            <path d="M351.3,80.6 C351,79.9 350.5,79.2 350,78.7 C346.5,75.9 344.2,71.6 343.2,65.8 C342.1,60.1 341.9,54 342.5,47.6 C342.8,45.8 343.1,44.1 343.5,42.2 C343.9,40.3 344.2,38.5 344.5,36.8 C345,35.1 345.4,33.3 345.8,31.7 C346.2,30 346.6,28.4 346.9,26.9 C347.5,24.9 347.9,22.5 348.1,19.6 C348.3,16.8 347.1,14.5 344.4,12.7 C342.7,11.4 340.9,11 339,11.6 C337.2,12.2 335.5,13 334,13.9 C333.6,14.4 333.2,14.8 332.6,15 C332,15.3 331.5,15.6 331.2,16.1 C327.2,19 323.5,22.3 320.3,26 C317.1,29.6 314.3,33.2 311.8,36.6 C309.3,40.1 307.3,43.1 305.9,45.8 C304.5,48.5 303.5,50.3 303.1,51.2 C303.3,50.1 303.5,49.1 303.7,48.1 C303.9,47.1 304.1,46.1 304.3,45 C305,41.9 305.7,39.1 306.4,36.4 C307.1,33.7 307.8,31.5 308.5,29.7 C309.4,27 309.1,24.9 307.5,23.3 C306,21.7 304.7,20.7 303.8,20.3 C302.6,19.7 301.7,19.4 300.9,19.2 C300.1,19.1 299.5,18.9 299.1,18.8 C298.4,18.5 297,18.4 294.8,18.4 C292.6,18.4 291.2,19.3 290.5,21.1 C289,26.2 287.7,30.9 286.6,35.2 C285.5,39.5 284.5,43.8 283.7,48 C283.7,48.1 283.7,48.1 283.7,48.2 C284.3,48 285,47.8 285.6,47.5 C287.5,46.8 289.4,45.7 291.4,44.3 C292.8,43.6 293.8,43.3 294.4,43.4 C294.9,43.7 295.3,44.6 295.6,46.1 C295.9,47.6 295.6,49 294.8,50.2 C292.9,52.4 290.7,54.3 288.1,55.9 C286.3,57 284.4,58 282.3,58.7 C282.2,59.5 282.2,60.4 282.1,61.2 C281.8,65.7 281.8,70.6 282,75.8 C282.2,78 282.7,80.1 283.5,81.9 C284.2,83.7 285.6,85.2 287.5,86.4 C289.4,87.6 291.9,88.5 295.1,89.1 C298.3,89.7 302.5,89.8 307.6,89.4 L307.6,89.4 C307.8,89.5 308.1,89.5 308.4,89 C308.9,88.5 309.4,87.6 309.8,86.5 C310,86 309.9,85.1 309.6,83.7 C309.3,82.5 309.1,80.9 308.9,78.8 C308.7,76.8 308.6,74.5 308.5,72 C308.6,66.3 309.7,61.2 311.7,56.6 C312.9,53.4 314.5,50.6 316.4,48 C318.3,45.5 320.2,43.2 322.1,41.1 C322.3,40.8 322.6,40.8 323,40.9 L323.1,41.5 C322.4,43.5 322,45.4 321.7,47.1 C321.4,48.8 321.2,50.4 321.1,51.9 C320.2,59.9 320.1,66.4 320.8,71.6 C321.5,76.7 322.2,80.5 322.9,82.9 C323.2,83.3 323.5,83.8 323.9,84.6 C324.2,85.4 325,86 326.1,86.4 C328.8,87.4 331.4,87.8 333.9,87.7 C336.4,87.6 338.7,87.3 340.8,86.8 C342.9,86.3 344.8,85.6 346.4,84.8 C348,84 349.4,83.2 350.5,82.6 C351.4,82 351.7,81.4 351.3,80.6 Z" id="Path"></path>
        </g>
    </g>
</svg>